<svg width="56" height="56" viewBox="0 0 56 56" fill="none" xmlns="http://www.w3.org/2000/svg">
    <g filter="url(#filter0_d)">
        <rect width="48" height="48" rx="24" transform="matrix(-1 0 0 1 52 1)" fill="white"/>
        <rect x="-0.5" y="0.5" width="47" height="47" rx="23.5" transform="matrix(-1 0 0 1 51 1)" stroke="#F1F7FE"/>
    </g>
    <path d="M25.0005 25C25.0005 23.3432 26.3432 21.9998 28 21.9998C29.6568 21.9998 31.0002 23.3432 31.0002 25C31.0002 26.6568 29.6568 28.0002 28 28.0002C26.3432 28.0002 25.0005 26.6568 25.0005 25ZM23.3786 25C23.3786 27.5524 25.4476 29.6214 28 29.6214C30.5524 29.6214 32.6214 27.5524 32.6214 25C32.6214 22.4476 30.5524 20.3786 28 20.3786C25.4476 20.3786 23.3786 22.4476 23.3786 25ZM31.7243 20.1954C31.7243 20.409 31.7875 20.6178 31.9061 20.7955C32.0247 20.9731 32.1933 21.1116 32.3906 21.1934C32.588 21.2752 32.8051 21.2967 33.0146 21.2551C33.2241 21.2135 33.4166 21.1108 33.5677 20.9598C33.7188 20.8088 33.8218 20.6164 33.8635 20.4069C33.9053 20.1974 33.884 19.9803 33.8023 19.7829C33.7206 19.5855 33.5823 19.4168 33.4047 19.2981C33.2272 19.1793 33.0184 19.1159 32.8048 19.1158H32.8043C32.518 19.1159 32.2435 19.2297 32.041 19.4321C31.8385 19.6345 31.7246 19.909 31.7243 20.1954ZM24.364 32.3258C23.4865 32.2858 23.0096 32.1397 22.6927 32.0162C22.2725 31.8526 21.9727 31.6578 21.6574 31.343C21.3422 31.0282 21.1471 30.7287 20.9842 30.3085C20.8607 29.9917 20.7145 29.5146 20.6746 28.6372C20.631 27.6885 20.6223 27.4035 20.6223 25.0001C20.6223 22.5966 20.6317 22.3125 20.6746 21.363C20.7146 20.4855 20.8618 20.0094 20.9842 19.6917C21.1478 19.2715 21.3427 18.9717 21.6574 18.6564C21.9722 18.3412 22.2718 18.1461 22.6927 17.9832C23.0095 17.8597 23.4865 17.7135 24.364 17.6736C25.3127 17.63 25.5976 17.6213 28 17.6213C30.4024 17.6213 30.6876 17.6307 31.6371 17.6736C32.5145 17.7136 32.9907 17.8608 33.3084 17.9832C33.7286 18.1461 34.0284 18.3417 34.3436 18.6564C34.6588 18.9712 34.8532 19.2715 35.0168 19.6917C35.1404 20.0085 35.2865 20.4855 35.3264 21.363C35.3701 22.3125 35.3788 22.5966 35.3788 25.0001C35.3788 27.4035 35.3701 27.6877 35.3264 28.6372C35.2865 29.5146 35.1396 29.9915 35.0168 30.3085C34.8532 30.7287 34.6584 31.0285 34.3436 31.343C34.0288 31.6575 33.7286 31.8526 33.3084 32.0162C32.9916 32.1397 32.5145 32.2859 31.6371 32.3258C30.6884 32.3694 30.4034 32.3781 28 32.3781C25.5966 32.3781 25.3124 32.3694 24.364 32.3258ZM24.2895 16.0545C23.3314 16.0981 22.6767 16.2501 22.1049 16.4725C21.5128 16.7023 21.0115 17.0105 20.5106 17.5106C20.0097 18.0107 19.7023 18.5128 19.4725 19.1049C19.2501 19.677 19.0981 20.3314 19.0545 21.2895C19.0102 22.2491 19 22.5559 19 25C19 27.4441 19.0102 27.7509 19.0545 28.7105C19.0981 29.6687 19.2501 30.323 19.4725 30.8951C19.7023 31.4868 20.0098 31.9895 20.5106 32.4894C21.0115 32.9893 21.5128 33.2971 22.1049 33.5275C22.6778 33.7499 23.3314 33.9019 24.2895 33.9455C25.2496 33.9891 25.5559 34 28 34C30.4441 34 30.7509 33.9898 31.7105 33.9455C32.6687 33.9019 33.323 33.7499 33.8951 33.5275C34.4868 33.2971 34.9885 32.9895 35.4894 32.4894C35.9903 31.9893 36.2971 31.4868 36.5275 30.8951C36.7499 30.323 36.9026 29.6686 36.9455 28.7105C36.9891 27.7502 36.9993 27.4441 36.9993 25C36.9993 22.5559 36.9891 22.2491 36.9455 21.2895C36.9019 20.3313 36.7499 19.6767 36.5275 19.1049C36.2971 18.5132 35.9895 18.0115 35.4894 17.5106C34.9893 17.0097 34.4868 16.7023 33.8958 16.4725C33.323 16.2501 32.6686 16.0974 31.7112 16.0545C30.7516 16.0109 30.4448 16 28.0007 16C25.5566 16 25.2496 16.0102 24.2895 16.0545Z"
          fill="url(#paint0_radial)"/>
    <path d="M25.0005 25C25.0005 23.3432 26.3432 21.9998 28 21.9998C29.6568 21.9998 31.0002 23.3432 31.0002 25C31.0002 26.6568 29.6568 28.0002 28 28.0002C26.3432 28.0002 25.0005 26.6568 25.0005 25ZM23.3786 25C23.3786 27.5524 25.4476 29.6214 28 29.6214C30.5524 29.6214 32.6214 27.5524 32.6214 25C32.6214 22.4476 30.5524 20.3786 28 20.3786C25.4476 20.3786 23.3786 22.4476 23.3786 25ZM31.7243 20.1954C31.7243 20.409 31.7875 20.6178 31.9061 20.7955C32.0247 20.9731 32.1933 21.1116 32.3906 21.1934C32.588 21.2752 32.8051 21.2967 33.0146 21.2551C33.2241 21.2135 33.4166 21.1108 33.5677 20.9598C33.7188 20.8088 33.8218 20.6164 33.8635 20.4069C33.9053 20.1974 33.884 19.9803 33.8023 19.7829C33.7206 19.5855 33.5823 19.4168 33.4047 19.2981C33.2272 19.1793 33.0184 19.1159 32.8048 19.1158H32.8043C32.518 19.1159 32.2435 19.2297 32.041 19.4321C31.8385 19.6345 31.7246 19.909 31.7243 20.1954ZM24.364 32.3258C23.4865 32.2858 23.0096 32.1397 22.6927 32.0162C22.2725 31.8526 21.9727 31.6578 21.6574 31.343C21.3422 31.0282 21.1471 30.7287 20.9842 30.3085C20.8607 29.9917 20.7145 29.5146 20.6746 28.6372C20.631 27.6885 20.6223 27.4035 20.6223 25.0001C20.6223 22.5966 20.6317 22.3125 20.6746 21.363C20.7146 20.4855 20.8618 20.0094 20.9842 19.6917C21.1478 19.2715 21.3427 18.9717 21.6574 18.6564C21.9722 18.3412 22.2718 18.1461 22.6927 17.9832C23.0095 17.8597 23.4865 17.7135 24.364 17.6736C25.3127 17.63 25.5976 17.6213 28 17.6213C30.4024 17.6213 30.6876 17.6307 31.6371 17.6736C32.5145 17.7136 32.9907 17.8608 33.3084 17.9832C33.7286 18.1461 34.0284 18.3417 34.3436 18.6564C34.6588 18.9712 34.8532 19.2715 35.0168 19.6917C35.1404 20.0085 35.2865 20.4855 35.3264 21.363C35.3701 22.3125 35.3788 22.5966 35.3788 25.0001C35.3788 27.4035 35.3701 27.6877 35.3264 28.6372C35.2865 29.5146 35.1396 29.9915 35.0168 30.3085C34.8532 30.7287 34.6584 31.0285 34.3436 31.343C34.0288 31.6575 33.7286 31.8526 33.3084 32.0162C32.9916 32.1397 32.5145 32.2859 31.6371 32.3258C30.6884 32.3694 30.4034 32.3781 28 32.3781C25.5966 32.3781 25.3124 32.3694 24.364 32.3258ZM24.2895 16.0545C23.3314 16.0981 22.6767 16.2501 22.1049 16.4725C21.5128 16.7023 21.0115 17.0105 20.5106 17.5106C20.0097 18.0107 19.7023 18.5128 19.4725 19.1049C19.2501 19.677 19.0981 20.3314 19.0545 21.2895C19.0102 22.2491 19 22.5559 19 25C19 27.4441 19.0102 27.7509 19.0545 28.7105C19.0981 29.6687 19.2501 30.323 19.4725 30.8951C19.7023 31.4868 20.0098 31.9895 20.5106 32.4894C21.0115 32.9893 21.5128 33.2971 22.1049 33.5275C22.6778 33.7499 23.3314 33.9019 24.2895 33.9455C25.2496 33.9891 25.5559 34 28 34C30.4441 34 30.7509 33.9898 31.7105 33.9455C32.6687 33.9019 33.323 33.7499 33.8951 33.5275C34.4868 33.2971 34.9885 32.9895 35.4894 32.4894C35.9903 31.9893 36.2971 31.4868 36.5275 30.8951C36.7499 30.323 36.9026 29.6686 36.9455 28.7105C36.9891 27.7502 36.9993 27.4441 36.9993 25C36.9993 22.5559 36.9891 22.2491 36.9455 21.2895C36.9019 20.3313 36.7499 19.6767 36.5275 19.1049C36.2971 18.5132 35.9895 18.0115 35.4894 17.5106C34.9893 17.0097 34.4868 16.7023 33.8958 16.4725C33.323 16.2501 32.6686 16.0974 31.7112 16.0545C30.7516 16.0109 30.4448 16 28.0007 16C25.5566 16 25.2496 16.0102 24.2895 16.0545Z"
          fill="url(#paint1_radial)"/>
    <defs>
        <filter id="filter0_d" x="0" y="0" width="56" height="56" filterUnits="userSpaceOnUse"
                color-interpolation-filters="sRGB">
            <feFlood flood-opacity="0" result="BackgroundImageFix"/>
            <feColorMatrix in="SourceAlpha" type="matrix" values="0 0 0 0 0 0 0 0 0 0 0 0 0 0 0 0 0 0 127 0"/>
            <feOffset dy="3"/>
            <feGaussianBlur stdDeviation="2"/>
            <feColorMatrix type="matrix" values="0 0 0 0 0.650127 0 0 0 0 0.803216 0 0 0 0 0.889329 0 0 0 0.4 0"/>
            <feBlend mode="normal" in2="BackgroundImageFix" result="effect1_dropShadow"/>
            <feBlend mode="normal" in="SourceGraphic" in2="effect1_dropShadow" result="shape"/>
        </filter>
        <radialGradient id="paint0_radial" cx="0" cy="0" r="1" gradientUnits="userSpaceOnUse"
                        gradientTransform="translate(21.3914 34.085) scale(23.4975)">
            <stop offset="0.09" stop-color="#FA8F21"/>
            <stop offset="0.78" stop-color="#D82D7E"/>
        </radialGradient>
        <radialGradient id="paint1_radial" cx="0" cy="0" r="1" gradientUnits="userSpaceOnUse"
                        gradientTransform="translate(29.9162 34.8914) scale(18.5193)">
            <stop offset="0.64" stop-color="#8C3AAA" stop-opacity="0"/>
            <stop offset="1" stop-color="#8C3AAA"/>
        </radialGradient>
    </defs>
</svg>
