<svg width="60" height="60" viewBox="0 0 60 60" fill="none" xmlns="http://www.w3.org/2000/svg">
<g filter="url(#filter0_d)">
<rect width="48" height="48" rx="24" transform="matrix(-1 0 0 1 54 2)" fill="white"/>
<rect x="-0.5" y="0.5" width="47" height="47" rx="23.5" transform="matrix(-1 0 0 1 53 2)" stroke="#F9F6F7"/>
</g>
<path fill-rule="evenodd" clip-rule="evenodd" d="M23.1014 18.8665C21.3311 18.9347 19.9053 20.3296 19.8181 22.0991C19.7552 23.3763 19.7002 24.8283 19.7002 26C19.7002 27.1718 19.7552 28.6237 19.8181 29.9009C19.9053 31.6704 21.331 33.0653 23.1014 33.1336C25.1776 33.2136 27.9036 33.3 30.0002 33.3C32.0967 33.3 34.8228 33.2136 36.899 33.1336C38.6693 33.0653 40.0951 31.6704 40.1823 29.9009C40.2452 28.6237 40.3002 27.1717 40.3002 26C40.3002 24.8283 40.2452 23.3763 40.1823 22.0991C40.0951 20.3296 38.6693 18.9347 36.899 18.8665C34.8228 18.7864 32.0967 18.7 30.0002 18.7C27.9036 18.7 25.1776 18.7864 23.1014 18.8665ZM33.5 26L27.5 22.5V29.5L33.5 26Z" fill="#F8251C"/>
<defs>
<filter id="filter0_d" x="0" y="0" width="60" height="60" filterUnits="userSpaceOnUse" color-interpolation-filters="sRGB">
<feFlood flood-opacity="0" result="BackgroundImageFix"/>
<feColorMatrix in="SourceAlpha" type="matrix" values="0 0 0 0 0 0 0 0 0 0 0 0 0 0 0 0 0 0 127 0"/>
<feOffset dy="4"/>
<feGaussianBlur stdDeviation="3"/>
<feColorMatrix type="matrix" values="0 0 0 0 0.913725 0 0 0 0 0.901961 0 0 0 0 0.905882 0 0 0 1 0"/>
<feBlend mode="normal" in2="BackgroundImageFix" result="effect1_dropShadow"/>
<feBlend mode="normal" in="SourceGraphic" in2="effect1_dropShadow" result="shape"/>
</filter>
</defs>
</svg>
