<svg width="90" height="90" viewBox="0 0 90 90" fill="none" xmlns="http://www.w3.org/2000/svg">
    <circle cx="45" cy="45" r="43.5" fill="white" stroke="#0D2B4B" stroke-width="3"/>
    <mask id="mask0" mask-type="alpha" maskUnits="userSpaceOnUse" x="0" y="0" width="90" height="90">
        <circle cx="45" cy="45" r="45" fill="#C4C4C4"/>
    </mask>
    <g mask="url(#mask0)">
        <path d="M57.8359 63.9199L68.6606 43.4574C70.5158 40.1755 69.2033 36.8454 67.2073 35.693C66.5024 35.2861 64.7928 34.7343 64.5529 35.1499L67.1233 30.6978C68.8797 27.6556 67.3267 24.8792 65.2416 23.6754C64.4403 23.2128 63.4859 22.7409 62.524 22.7792C63.8659 19.7351 62.2786 17.0181 59.9636 15.6815C57.4333 14.2207 54.4106 15.0181 52.5128 18.3051C52.5128 18.3051 52.1992 17.1347 50.7152 16.2779C47.7472 14.5644 44.8963 16.1436 43.2644 18.9016C43.2644 18.9016 34.3934 32.5872 34.3829 32.5712C33.4518 30.6882 30.8271 30.1621 28.7605 30.3145L24.9049 36.9925C22.4493 39.5321 13.0246 55.8562 13.0246 55.8562L16.7879 69.9009L12.504 77.321L14.73 78.6062L18.1571 72.6701L20.3831 73.9553C21.1251 74.3837 22.1884 74.2556 22.5097 73.6991C22.831 73.1426 22.4103 72.1577 21.6683 71.7293L19.4423 70.4441L15.679 56.3994L22.5334 44.5273C22.5334 44.5273 25.1037 40.0753 26.7025 39.0197L29.6178 33.2334C29.6178 33.2334 31.5157 32.3109 32.7455 33.6936C34.1886 35.8723 32.4783 39.2973 30.7261 42.3321C30.7261 42.3321 26.1286 48.5817 27.8114 52.5213C28.78 54.802 30.2237 56.8424 30.8634 59.2301L32.7759 59.3448C32.6387 57.9202 30.4501 53.0059 30.1522 51.8941C29.2114 48.3829 32.9522 43.6172 32.9522 43.6172C34.2373 41.3912 35.4864 37.9769 35.4066 35.8533L45.4904 20.1868C46.7756 17.9608 48.2502 17.8228 49.43 18.5039C50.5207 19.1337 51.656 19.7891 49.9638 22.72L38.3757 42.7912L40.6018 44.0764L54.7388 19.5903C55.9426 17.5053 57.3799 17.1578 58.6784 17.9075C59.9027 18.6143 61.2094 20.3779 59.9328 22.5891L45.7958 47.0752L48.0218 48.3604L60.4452 26.8423C61.4691 25.0689 62.8212 25.246 63.9564 25.9015C65.0917 26.5569 65.9211 27.6393 64.8973 29.4127L52.4738 50.9307L52.3551 50.8622L53.7273 53.9003L62.4109 38.8599C63.5804 36.8342 64.913 37.3364 65.9221 37.919C66.9312 38.5017 67.6041 40.1466 66.4345 42.1722L55.6099 62.6347L48.3271 75.2487L35.0244 79.4404L33.5404 78.5836C32.7984 78.1552 31.7351 78.2834 31.4138 78.8399C31.0925 79.3964 31.5132 80.3813 32.2552 80.8096L34.4812 82.0948L31.054 88.0309L33.28 89.316L37.9924 81.154L50.1248 77.2759L57.8359 63.9199Z"
              fill="#0D2B4B"/>
        <path d="M55.8048 40.8622L53.357 41.0398C53.0057 41.1304 52.6573 41.2403 52.3174 41.3914C52.1733 41.4554 52.0302 41.5246 51.8902 41.5991C51.7948 41.4017 51.6929 41.2087 51.5847 41.0212C49.7524 37.8475 46.3309 36.2315 43.2203 36.786C42.6832 36.7861 41.0437 37.5759 41.1074 37.5437C41.0864 37.5558 41.0644 37.5641 41.0438 37.5759C39.2506 38.6112 38.0442 40.4464 37.6744 42.581C35.7995 41.8923 33.7886 41.9464 32.0808 42.7718C31.9398 42.7718 30.2769 44.0645 30.2769 44.0645C27.8963 46.4444 27.4246 50.4809 29.3685 53.8478C29.4767 54.0352 29.5929 54.2199 29.7161 54.4013C29.5819 54.4858 29.4502 54.5746 29.3239 54.6673C29.0601 54.8597 28.8211 55.073 28.5933 55.2957C28.3654 55.5184 27.1896 57.2817 27.1896 57.2817C26.0118 59.798 26.2851 63.0366 28.1632 65.6501L46.9993 98.2753C47.3041 98.8032 47.9799 98.9842 48.5078 98.6795C56.1762 94.2521 65.6473 88.784 80.8428 80.0108C81.3707 79.7061 81.5518 79.0302 81.247 78.5023L62.4109 45.8772C61.1094 43.0002 58.5158 41.1561 55.8048 40.8622Z"
              fill="#0D2B4B"/>
        <path d="M54.9547 57.2057C54.2564 57.285 52.839 56.6025 51.508 55.5449C50.5968 54.8214 47.8516 52.6408 44.6853 54.1954C44.5886 54.2289 44.4915 54.2817 44.4119 54.3347C44.3223 54.3795 44.2309 54.4354 44.1545 54.5018C41.223 56.4666 41.7382 59.9353 41.9095 61.0866C42.1598 62.7681 42.0422 64.3369 41.6244 64.902C39.7478 67.4391 39.768 70.9462 41.6737 73.4297C43.4246 75.7125 46.2419 76.4501 49.0265 75.355C50.2221 74.886 51.3147 74.053 52.1026 73.0135C52.3561 72.6797 52.565 72.3436 52.7662 72.0183C53.1092 71.4651 53.4071 70.9839 53.837 70.6618C54.3307 70.4501 54.8971 70.4329 55.5472 70.4127C55.9292 70.4006 56.3245 70.3885 56.7404 70.3359C57.6888 70.2161 58.6253 69.9011 59.4487 69.4257C59.749 69.2523 60.0381 69.0561 60.306 68.8422C62.6466 66.9782 63.4165 64.1696 62.315 61.5118C61.1173 58.6202 58.0902 56.8491 54.9547 57.2057ZM60.275 62.3581C60.9946 64.0938 60.4919 65.8722 58.9301 67.115C58.2387 67.6646 57.3598 68.0317 56.4627 68.1454C56.1507 68.1847 55.8238 68.1949 55.4781 68.2058C54.6621 68.2313 53.7364 68.2601 52.8048 68.7061C52.7793 68.7183 52.7539 68.7317 52.7295 68.7458C52.7051 68.7599 52.6808 68.7752 52.6575 68.7912C51.8058 69.3754 51.3181 70.1619 50.8881 70.8558C50.7053 71.1501 50.5338 71.4283 50.3425 71.6789C49.7963 72.3992 49.0396 72.977 48.2169 73.3002C46.3599 74.0306 44.5684 73.5768 43.4254 72.0862C42.354 70.69 41.8894 68.2575 43.3993 66.2158C44.5305 64.6867 44.2614 61.8927 44.0934 60.7624C43.7494 58.4483 44.1603 57.1081 45.4678 56.2818C45.4842 56.2716 45.4997 56.2608 45.5151 56.25C45.5322 56.242 45.5495 56.2333 45.5667 56.2246C46.9361 55.5054 48.3019 55.8193 50.1342 57.2747C51.0291 57.9854 53.3147 59.6152 55.2041 59.4003C57.7272 59.1136 59.6018 60.7327 60.275 62.3581Z"
              fill="white"/>
        <path d="M38.105 65.7707C38.878 65.1172 39.3483 64.1539 39.4295 63.0589C39.5404 61.5635 38.9468 59.9578 37.8011 58.6536C35.9467 56.5428 33.1964 55.822 31.2603 56.9398C31.0733 57.0478 30.8945 57.1733 30.73 57.3123C29.9571 57.9658 29.4867 58.9291 29.4055 60.0241C29.2947 61.5195 29.8878 63.1255 31.0338 64.4301C32.8879 66.5405 35.6389 67.2615 37.5746 66.1439C37.762 66.0357 37.9408 65.9102 38.105 65.7707ZM32.6937 62.9719C31.9479 62.1229 31.542 61.0821 31.6083 60.1875C31.6346 59.8344 31.751 59.3413 32.1561 58.9984C32.2209 58.9438 32.2911 58.8943 32.3648 58.8518C33.3589 58.2778 35.0179 58.8311 36.1418 60.1108C36.8876 60.9598 37.2935 62.0007 37.2272 62.8952C37.2009 63.2483 37.0845 63.7414 36.6794 64.0843C35.7407 64.8781 33.9013 64.3468 32.6937 62.9719Z"
              fill="white"/>
        <path d="M39.1413 55.5023C39.224 55.4546 39.3058 55.4029 39.3856 55.3479C41.4388 53.9259 41.5935 50.7119 39.7363 48.0308C37.8923 45.3681 34.8287 44.3564 32.7633 45.786C31.7409 46.4943 31.1439 47.7252 31.1261 49.163C31.1097 50.482 31.5666 51.8817 32.4124 53.1027C34.1851 55.6618 37.0775 56.6939 39.1413 55.5023ZM33.3343 49.19C33.3395 48.7707 33.4356 48.0062 34.0203 47.601C34.0501 47.5807 34.0808 47.561 34.1119 47.5431C35.0089 47.0252 36.7532 47.6025 37.9205 49.2876C39.0335 50.895 39.1283 52.8384 38.1278 53.5315C37.2379 54.1536 35.4355 53.5882 34.2281 51.8447C33.6498 51.0098 33.3238 50.0421 33.3343 49.19Z"
              fill="white"/>
        <path d="M53.9054 43.9323C53.7028 44.0053 53.5047 44.0973 53.3177 44.2053C51.3821 45.3228 50.6309 48.0658 51.5315 50.7267C52.0881 52.371 53.1822 53.6884 54.5326 54.34C55.5223 54.8174 56.591 54.8916 57.5433 54.5489C57.746 54.4759 57.9436 54.3842 58.131 54.2759C58.131 54.2759 58.131 54.2759 58.1315 54.2757C60.0667 53.1584 60.8179 50.4154 59.9173 47.7545C59.3607 46.1102 58.2661 44.7931 56.916 44.1419C55.9272 43.664 54.8578 43.5896 53.9054 43.9323ZM57.8254 48.4624C58.4123 50.1957 57.9469 52.0576 56.7959 52.4703C56.2966 52.6502 55.8119 52.5042 55.4922 52.3502C54.6844 51.9603 53.9859 51.0884 53.6236 50.018C53.0773 48.4048 53.4276 46.6915 54.4218 46.1175C54.4954 46.075 54.5734 46.0389 54.653 46.0101C55.1519 45.8305 55.6371 45.9763 55.9568 46.1303C56.7646 46.5201 57.4631 47.392 57.8254 48.4624Z"
              fill="white"/>
        <path d="M48.1311 50.3126C50.1944 49.1214 50.7473 46.1001 49.4169 43.2857C48.7821 41.9422 47.7987 40.8472 46.6482 40.2019C45.3941 39.4984 44.0293 39.3995 42.905 39.9313C40.6387 41.0007 39.9786 44.1641 41.3625 47.0924C42.7561 50.0406 45.6166 51.5144 47.8752 50.447C47.9627 50.4054 48.0483 50.3604 48.1311 50.3126ZM43.3596 46.1485C42.4839 44.295 42.8561 42.4958 43.7532 41.9779C43.7843 41.9599 43.8159 41.9429 43.8491 41.9276C44.4923 41.6238 45.2022 41.9223 45.5683 42.1279C46.3114 42.5449 46.9865 43.3111 47.4206 44.2298C48.3273 46.1469 47.913 47.9902 46.9316 48.4504C45.8308 48.9699 44.1952 47.9161 43.3596 46.1485Z"
              fill="white"/>
    </g>
</svg>
