<svg width="28" height="32" viewBox="0 0 28 32" fill="none" xmlns="http://www.w3.org/2000/svg">
<path d="M6.75004 19.402H5.41504V21.393H6.75004C7.28604 21.393 7.71004 20.921 7.71004 20.425C7.70904 19.866 7.28604 19.402 6.75004 19.402Z" fill="#3E5B9D"/>
<path d="M12.1229 19.442H10.7959V23.024H12.1229C14.2819 23.024 14.3769 19.442 12.1229 19.442Z" fill="#3E5B9D"/>
<path d="M23 15H1C0.45 15 0 15.45 0 16V26C0 26.55 0.45 27 1 27H23C23.551 27 24 26.55 24 26V16C24 15.45 23.551 15 23 15ZM6.75 22.393H5.415V23.449C5.415 23.801 5.191 24 4.903 24C4.639 24 4.36 23.801 4.36 23.448V18.947C4.36 18.683 4.568 18.394 4.903 18.394H6.75C7.79 18.394 8.726 19.09 8.726 20.425C8.725 21.689 7.79 22.393 6.75 22.393ZM12.195 24H10.292C10.028 24 9.74 23.855 9.74 23.504V18.963C9.74 18.675 10.028 18.467 10.292 18.467H12.123C15.777 18.467 15.697 24 12.195 24ZM19.32 19.506H16.992V20.777H19.031C19.32 20.777 19.607 21.065 19.607 21.345C19.607 21.609 19.32 21.824 19.031 21.824H16.992V23.503C16.992 23.783 16.793 23.999 16.513 23.999C16.161 23.999 15.945 23.783 15.945 23.503V18.962C15.945 18.674 16.162 18.466 16.513 18.466H19.32C19.672 18.466 19.879 18.674 19.879 18.962C19.879 19.219 19.672 19.506 19.32 19.506Z" fill="#3E5B9D"/>
<path d="M27 7.586L20.414 1C19.836 0.42 18.82 0 18 0H7C5.346 0 4 1.346 4 3V13C4 13.553 4.447 14 5 14C5.553 14 6 13.553 6 13V3C6 2.449 6.448 2 7 2H16C17.105 2 18 2.896 18 4V7.75C18 8.988 19.014 10 20.25 10H24C25.105 10 26 10.896 26 12V29C26 29.551 25.553 30 25 30H7C6.448 30 6 29.551 6 29C6 28.447 5.553 28 5 28C4.447 28 4 28.447 4 29C4 30.654 5.346 32 7 32H25C26.654 32 28 30.654 28 29V10C28 9.181 27.58 8.165 27 7.586Z" fill="#3E5B9D"/>
</svg>
