<svg width="22" height="21" viewBox="0 0 22 21" fill="none" xmlns="http://www.w3.org/2000/svg">
<path fill-rule="evenodd" clip-rule="evenodd" d="M10.8957 3.28184C11.8568 1.29321 13.8849 0 16.1184 0C19.3345 0 21.9143 2.57472 21.8442 5.79709C21.8426 9.01596 19.1968 11.5884 16.05 11.5884H16.0392C15.7446 11.5884 15.4279 11.5884 15.1062 11.5385L11.9303 14.5199V20.289C11.9303 20.6246 11.7042 20.8338 11.5153 20.9283C11.3064 21.0327 10.981 21.0438 10.7493 20.8201L8.01351 18.4946L8.00618 18.4873C7.89301 18.3742 7.79442 18.1735 7.79442 17.9644V14.4509L0.202002 7.26522L0.189569 7.24898C0.123876 7.1632 0.0656261 7.08338 0.0332056 6.99621C-0.000393125 6.90587 -0.000148034 6.82258 2.60758e-05 6.76341L4.99805e-05 6.75141V4.42677C4.99805e-05 3.79451 0.537478 3.28184 1.21335 3.28184H10.8957ZM11.8613 6.18619C11.7966 5.2808 11.9895 4.43906 12.3796 3.65698C13.0888 2.37146 14.5069 1.4694 16.1184 1.4694C18.5042 1.4694 20.3748 3.40336 20.3748 5.72584C20.3748 8.11921 18.5017 10.0506 16.1184 10.0506H16.05C15.6735 10.0506 15.3595 9.98867 14.9688 9.85844L14.9581 9.85538C13.6007 9.46756 12.5035 8.43275 12.0529 7.14533L12.0488 7.1349C11.9232 6.82094 11.862 6.51128 11.862 6.20444V6.1953L11.8613 6.18619ZM10.5349 4.68287C10.4579 5.08323 10.4185 5.51227 10.4398 5.94834H1.46946V4.68287H10.5349ZM3.53799 7.48838C3.55676 7.48838 3.57539 7.48762 3.59388 7.48611H10.6648C11.1527 8.98425 12.1975 10.2509 13.6545 10.9294C13.5906 10.9876 13.519 11.0534 13.4415 11.1251C13.1424 11.4017 12.7505 11.7699 12.3615 12.1376C11.9723 12.5054 11.5854 12.8731 11.2957 13.1488L10.8135 13.6085L10.8094 13.6126C10.6963 13.7258 10.5977 13.9265 10.5977 14.1356V18.7088L9.26383 17.5726V14.1356C9.26383 13.9265 9.16524 13.7258 9.05208 13.6126L7.95814 12.5186L2.79998 7.48838H3.53799ZM18.1795 3.84516C18.4644 4.13006 18.4644 4.59198 18.1795 4.87688L17.1661 5.8903L18.1136 6.83786C18.3985 7.12276 18.3985 7.58468 18.1136 7.86958C17.8287 8.15448 17.3668 8.15448 17.0819 7.86958L16.1344 6.92201L15.1209 7.93543C14.836 8.22033 14.3741 8.22033 14.0892 7.93543C13.8043 7.65053 13.8043 7.18862 14.0892 6.90372L15.1026 5.8903L14.0892 4.87688C13.8043 4.59198 13.8043 4.13006 14.0892 3.84516C14.3741 3.56026 14.836 3.56026 15.1209 3.84516L16.1344 4.85858L17.1478 3.84516C17.4327 3.56026 17.8946 3.56026 18.1795 3.84516Z" fill="#F67670"/>
</svg>
