<svg width="48" height="48" viewBox="0 0 48 48" fill="none" xmlns="http://www.w3.org/2000/svg">
<rect width="48" height="48" rx="24" fill="#E9E6E7"/>
<path d="M24.9971 16.0945C24.9971 15.5439 24.5507 15.0975 24.0001 15.0975C23.4494 15.0975 23.0031 15.5439 23.0031 16.0945L23.0031 23.003L16.0946 23.003C15.544 23.003 15.0976 23.4494 15.0976 24C15.0976 24.5506 15.544 24.997 16.0946 24.997L23.0031 24.997L23.0031 31.9055C23.0031 32.4561 23.4494 32.9025 24.0001 32.9025C24.5507 32.9025 24.9971 32.4561 24.9971 31.9055L24.9971 24.997H31.9055C32.4562 24.997 32.9026 24.5506 32.9026 24C32.9026 23.4494 32.4562 23.003 31.9055 23.003H24.9971L24.9971 16.0945Z" fill="#F9F6F7"/>
</svg>
