<svg width="24" height="24" viewBox="0 0 24 24" fill="none" xmlns="http://www.w3.org/2000/svg">
<circle cx="12" cy="12" r="12" fill="#F9F6F7"/>
<path d="M16.9509 8.46247C17.3405 8.07316 17.3407 7.44165 16.9512 7.05218C16.5619 6.66293 15.9309 6.6628 15.5415 7.05188L12 10.5904L8.46026 7.05071C8.0709 6.66135 7.43962 6.66134 7.05026 7.05071C6.6609 7.44007 6.6609 8.07134 7.05026 8.4607L10.59 12.0004L7.05021 15.5402C6.66085 15.9296 6.66085 16.5608 7.05021 16.9502C7.43957 17.3396 8.07085 17.3396 8.46021 16.9502L12 13.4104L15.5398 16.9502C15.9291 17.3396 16.5604 17.3396 16.9498 16.9502C17.3391 16.5609 17.3391 15.9296 16.9498 15.5402L13.41 12.0004L16.9509 8.46247Z" fill="#62738D"/>
</svg>
