<svg width="18" height="18" viewBox="0 0 18 18" fill="none" xmlns="http://www.w3.org/2000/svg">
    <path d="M6.00048 9C6.00048 7.34321 7.34321 5.99976 9 5.99976C10.6568 5.99976 12.0002 7.34321 12.0002 9C12.0002 10.6568 10.6568 12.0002 9 12.0002C7.34321 12.0002 6.00048 10.6568 6.00048 9ZM4.37861 9C4.37861 11.5524 6.4476 13.6214 9 13.6214C11.5524 13.6214 13.6214 11.5524 13.6214 9C13.6214 6.4476 11.5524 4.37861 9 4.37861C6.4476 4.37861 4.37861 6.4476 4.37861 9ZM12.7243 4.19537C12.7243 4.40897 12.7875 4.6178 12.9061 4.79546C13.0247 4.97311 13.1933 5.1116 13.3906 5.19342C13.588 5.27525 13.8051 5.29672 14.0146 5.25513C14.2241 5.21354 14.4166 5.11076 14.5677 4.95978C14.7188 4.8088 14.8218 4.6164 14.8635 4.40692C14.9053 4.19744 14.884 3.98028 14.8023 3.7829C14.7206 3.58552 14.5823 3.4168 14.4047 3.29805C14.2272 3.17931 14.0184 3.11589 13.8048 3.1158C13.5185 3.11593 13.2435 3.2297 13.041 3.43212C12.8385 3.63454 12.7246 3.90905 12.7243 4.19537ZM5.364 16.3258C4.48654 16.2858 4.00961 16.1397 3.69266 16.0162C3.27247 15.8526 2.97266 15.6578 2.65745 15.343C2.34223 15.0282 2.14711 14.7287 1.98425 14.3085C1.8607 13.9917 1.71454 13.5146 1.67465 12.6372C1.63102 11.6885 1.6223 11.4035 1.6223 9.00007C1.6223 6.59664 1.63174 6.31246 1.67465 5.36299C1.71461 4.48553 1.86185 4.00939 1.98425 3.69166C2.14783 3.27146 2.34266 2.97166 2.65745 2.65644C2.97223 2.34122 3.27175 2.1461 3.69266 1.98324C4.00946 1.85969 4.48654 1.71353 5.364 1.67364C6.31267 1.63001 6.59765 1.6213 9 1.6213C11.4024 1.6213 11.6876 1.63073 12.6371 1.67364C13.5145 1.7136 13.9907 1.86084 14.3084 1.98324C14.7286 2.1461 15.0284 2.34166 15.3436 2.65644C15.6588 2.97122 15.8532 3.27146 16.0168 3.69166C16.1404 4.00846 16.2865 4.48553 16.3264 5.36299C16.3701 6.31246 16.3788 6.59664 16.3788 9.00007C16.3788 11.4035 16.3701 11.6877 16.3264 12.6372C16.2865 13.5146 16.1396 13.9915 16.0168 14.3085C15.8532 14.7287 15.6584 15.0285 15.3436 15.343C15.0288 15.6575 14.7286 15.8526 14.3084 16.0162C13.9916 16.1397 13.5145 16.2859 12.6371 16.3258C11.6884 16.3694 11.4034 16.3781 9 16.3781C6.59657 16.3781 6.31238 16.3694 5.364 16.3258ZM5.28948 0.054504C4.33138 0.098136 3.67668 0.250056 3.10493 0.472536C2.5128 0.702288 2.01154 1.01052 1.51063 1.51063C1.00973 2.01074 0.702288 2.5128 0.472536 3.10493C0.250056 3.67704 0.098136 4.33138 0.054504 5.28948C0.010152 6.2491 0 6.55589 0 9C0 11.4441 0.010152 11.7509 0.054504 12.7105C0.098136 13.6687 0.250056 14.323 0.472536 14.8951C0.702288 15.4868 1.0098 15.9895 1.51063 16.4894C2.01146 16.9893 2.5128 17.2971 3.10493 17.5275C3.67776 17.7499 4.33138 17.9019 5.28948 17.9455C6.2496 17.9891 6.55589 18 9 18C11.4441 18 11.7509 17.9898 12.7105 17.9455C13.6687 17.9019 14.323 17.7499 14.8951 17.5275C15.4868 17.2971 15.9885 16.9895 16.4894 16.4894C16.9903 15.9893 17.2971 15.4868 17.5275 14.8951C17.7499 14.323 17.9026 13.6686 17.9455 12.7105C17.9891 11.7502 17.9993 11.4441 17.9993 9C17.9993 6.55589 17.9891 6.2491 17.9455 5.28948C17.9019 4.3313 17.7499 3.67668 17.5275 3.10493C17.2971 2.51316 16.9895 2.01154 16.4894 1.51063C15.9893 1.00973 15.4868 0.702288 14.8958 0.472536C14.323 0.250056 13.6686 0.097416 12.7112 0.054504C11.7516 0.010872 11.4448 0 9.00072 0C6.55661 0 6.2496 0.010152 5.28948 0.054504Z" fill="url(#paint0_radial)"/>
    <path d="M6.00048 9C6.00048 7.34321 7.34321 5.99976 9 5.99976C10.6568 5.99976 12.0002 7.34321 12.0002 9C12.0002 10.6568 10.6568 12.0002 9 12.0002C7.34321 12.0002 6.00048 10.6568 6.00048 9ZM4.37861 9C4.37861 11.5524 6.4476 13.6214 9 13.6214C11.5524 13.6214 13.6214 11.5524 13.6214 9C13.6214 6.4476 11.5524 4.37861 9 4.37861C6.4476 4.37861 4.37861 6.4476 4.37861 9ZM12.7243 4.19537C12.7243 4.40897 12.7875 4.6178 12.9061 4.79546C13.0247 4.97311 13.1933 5.1116 13.3906 5.19342C13.588 5.27525 13.8051 5.29672 14.0146 5.25513C14.2241 5.21354 14.4166 5.11076 14.5677 4.95978C14.7188 4.8088 14.8218 4.6164 14.8635 4.40692C14.9053 4.19744 14.884 3.98028 14.8023 3.7829C14.7206 3.58552 14.5823 3.4168 14.4047 3.29805C14.2272 3.17931 14.0184 3.11589 13.8048 3.1158C13.5185 3.11593 13.2435 3.2297 13.041 3.43212C12.8385 3.63454 12.7246 3.90905 12.7243 4.19537ZM5.364 16.3258C4.48654 16.2858 4.00961 16.1397 3.69266 16.0162C3.27247 15.8526 2.97266 15.6578 2.65745 15.343C2.34223 15.0282 2.14711 14.7287 1.98425 14.3085C1.8607 13.9917 1.71454 13.5146 1.67465 12.6372C1.63102 11.6885 1.6223 11.4035 1.6223 9.00007C1.6223 6.59664 1.63174 6.31246 1.67465 5.36299C1.71461 4.48553 1.86185 4.00939 1.98425 3.69166C2.14783 3.27146 2.34266 2.97166 2.65745 2.65644C2.97223 2.34122 3.27175 2.1461 3.69266 1.98324C4.00946 1.85969 4.48654 1.71353 5.364 1.67364C6.31267 1.63001 6.59765 1.6213 9 1.6213C11.4024 1.6213 11.6876 1.63073 12.6371 1.67364C13.5145 1.7136 13.9907 1.86084 14.3084 1.98324C14.7286 2.1461 15.0284 2.34166 15.3436 2.65644C15.6588 2.97122 15.8532 3.27146 16.0168 3.69166C16.1404 4.00846 16.2865 4.48553 16.3264 5.36299C16.3701 6.31246 16.3788 6.59664 16.3788 9.00007C16.3788 11.4035 16.3701 11.6877 16.3264 12.6372C16.2865 13.5146 16.1396 13.9915 16.0168 14.3085C15.8532 14.7287 15.6584 15.0285 15.3436 15.343C15.0288 15.6575 14.7286 15.8526 14.3084 16.0162C13.9916 16.1397 13.5145 16.2859 12.6371 16.3258C11.6884 16.3694 11.4034 16.3781 9 16.3781C6.59657 16.3781 6.31238 16.3694 5.364 16.3258ZM5.28948 0.054504C4.33138 0.098136 3.67668 0.250056 3.10493 0.472536C2.5128 0.702288 2.01154 1.01052 1.51063 1.51063C1.00973 2.01074 0.702288 2.5128 0.472536 3.10493C0.250056 3.67704 0.098136 4.33138 0.054504 5.28948C0.010152 6.2491 0 6.55589 0 9C0 11.4441 0.010152 11.7509 0.054504 12.7105C0.098136 13.6687 0.250056 14.323 0.472536 14.8951C0.702288 15.4868 1.0098 15.9895 1.51063 16.4894C2.01146 16.9893 2.5128 17.2971 3.10493 17.5275C3.67776 17.7499 4.33138 17.9019 5.28948 17.9455C6.2496 17.9891 6.55589 18 9 18C11.4441 18 11.7509 17.9898 12.7105 17.9455C13.6687 17.9019 14.323 17.7499 14.8951 17.5275C15.4868 17.2971 15.9885 16.9895 16.4894 16.4894C16.9903 15.9893 17.2971 15.4868 17.5275 14.8951C17.7499 14.323 17.9026 13.6686 17.9455 12.7105C17.9891 11.7502 17.9993 11.4441 17.9993 9C17.9993 6.55589 17.9891 6.2491 17.9455 5.28948C17.9019 4.3313 17.7499 3.67668 17.5275 3.10493C17.2971 2.51316 16.9895 2.01154 16.4894 1.51063C15.9893 1.00973 15.4868 0.702288 14.8958 0.472536C14.323 0.250056 13.6686 0.097416 12.7112 0.054504C11.7516 0.010872 11.4448 0 9.00072 0C6.55661 0 6.2496 0.010152 5.28948 0.054504Z" fill="url(#paint1_radial)"/>
    <defs>
        <radialGradient id="paint0_radial" cx="0" cy="0" r="1" gradientUnits="userSpaceOnUse" gradientTransform="translate(2.39141 18.085) scale(23.4975)">
            <stop offset="0.09" stop-color="#FA8F21"/>
            <stop offset="0.78" stop-color="#D82D7E"/>
        </radialGradient>
        <radialGradient id="paint1_radial" cx="0" cy="0" r="1" gradientUnits="userSpaceOnUse" gradientTransform="translate(10.9162 18.8914) scale(18.5193)">
            <stop offset="0.64" stop-color="#8C3AAA" stop-opacity="0"/>
            <stop offset="1" stop-color="#8C3AAA"/>
        </radialGradient>
    </defs>
</svg>
