<svg width="90" height="90" viewBox="0 0 90 90" fill="none" xmlns="http://www.w3.org/2000/svg">
    <path d="M45 90C69.8528 90 90 69.8528 90 45C90 20.1472 69.8528 0 45 0C20.1472 0 0 20.1472 0 45C0 69.8528 20.1472 90 45 90Z" fill="url(#paint0_linear)"/>
    <path d="M50.1516 57.8786C49.2425 57.0605 49.0304 56.6362 48.8789 54.9696C48.5455 51.3635 48.6667 47.1211 45.0001 44.9999C41.3334 42.8787 37.7273 45.1211 34.4243 46.6362C32.9091 47.3332 32.4243 47.3635 31.2425 46.9696C28.2425 45.9393 24.8788 46.6362 23.091 49.212C20.697 52.6362 21.9697 57.3635 25.7879 59.1211C28.6667 60.4544 30.3637 58.5756 35.4546 61.515C40.5455 64.4544 39.7879 66.8483 42.3637 68.6968C45.7879 71.1211 50.5152 69.8483 52.2728 66.0605C53.6364 63.212 52.5455 59.9696 50.1516 57.8786Z" fill="#0D2B4B"/>
    <path d="M42.4243 36.9998C45.394 38.2726 48.5455 37.5756 50.3334 33.4241C52.091 29.2726 51.091 23.121 48.8486 21.9392C46.0001 20.4241 41.3031 24.6968 39.5152 28.8483C37.7274 32.9998 39.4243 35.7271 42.4243 36.9998Z" fill="#0D2B4B"/>
    <path d="M53.4851 43.3938C56.0609 45.3332 59.273 45.4544 62.0003 41.8483C64.7275 38.2422 66.0609 32.0301 63.3336 30.3332C61.1518 28.9695 55.3639 31.1816 52.6366 34.7877C49.9094 38.3635 50.9094 41.4241 53.4851 43.3938Z" fill="#0D2B4B"/>
    <path d="M35.4849 38.727C37.0001 34.4846 35.7274 28.5452 33.4849 27.5452C30.6365 26.3028 26.3031 30.9088 24.788 35.1815C23.2728 39.424 25.0607 41.9694 28.0001 42.9391C30.9698 43.9088 33.9698 42.9694 35.4849 38.727Z" fill="#0D2B4B"/>
    <path d="M66.1212 46.3939C64.1515 44.9394 58.3636 46.8182 55.4546 50.2424C52.5455 53.6666 53.2121 56.7575 55.5455 58.8182C57.8788 60.8788 60.9394 61.1515 63.8788 57.7272C66.7879 54.303 68.6061 48.2424 66.1212 46.3939Z" fill="#0D2B4B"/>
    <defs>
        <linearGradient id="paint0_linear" x1="22.3915" y1="76.7889" x2="74.5621" y2="3.44076" gradientUnits="userSpaceOnUse">
            <stop stop-color="#EF8043"/>
            <stop offset="1" stop-color="#ECBB3B"/>
        </linearGradient>
    </defs>
</svg>
