<svg width="90" height="90" viewBox="0 0 90 90" fill="none" xmlns="http://www.w3.org/2000/svg">
<mask id="mask0" mask-type="alpha" maskUnits="userSpaceOnUse" x="0" y="0" width="90" height="90">
<rect width="90" height="90" rx="24" fill="#C4C4C4"/>
</mask>
<g mask="url(#mask0)">
<path d="M76.5301 37.4631C74.3614 36.211 71.5947 36.9346 70.3551 39.0817L60.2201 56.4708C60.2201 56.4708 59.5251 57.6905 58.3434 57.0083C57.1356 56.311 57.8714 55.1147 57.8714 55.1147L72.388 29.9711C73.6272 27.8249 72.847 25.1538 70.6783 23.9017C68.5073 22.6483 66.0002 23.4214 64.761 25.5677L50.2453 50.7098C50.2453 50.7098 49.4028 51.8616 48.2365 51.1883C47.0794 50.5203 47.7019 49.2413 47.7019 49.2413L64.6371 19.9087C65.8754 17.7639 65.1807 15.1899 63.0112 13.9374C60.841 12.6844 58.2507 13.3618 57.0124 15.5066L40.0768 44.84C40.0768 44.84 39.3384 45.982 38.0891 45.2607C36.8605 44.5514 37.5342 43.372 37.5342 43.372L50.1155 21.5806C51.3546 19.4343 50.4318 17.108 48.2623 15.8555C46.0913 14.6021 43.7264 15.0312 42.4877 17.1767L24.1007 49.0239C24.1007 49.0239 23.0713 50.3164 22.3674 46.7937C20.5621 37.7648 18.5046 34.9893 18.5046 34.9893C18.5046 34.9893 14.9067 29.6852 10.1715 32.7772C6.73828 35.0211 9.91399 36.7004 10.2882 42.1053C11.4378 46.9241 11.9446 49.1784 12.9844 54.3134C15.0779 64.6519 10.6254 81.7207 22.3674 88.5C22.3674 88.5 42.4877 102.5 60.0053 75.3449L78.2152 43.6197C79.4529 41.4706 78.7004 38.7161 76.5301 37.4631Z" fill="#F9F6F7"/>
<path d="M57.8044 42.8621C56.6779 42.7399 55.3567 43.0397 55.3567 43.0397C55.0054 43.1303 54.657 43.2402 54.3171 43.3913C54.173 43.4553 54.0299 43.5245 53.89 43.599C53.7945 43.4016 53.6927 43.2087 53.5845 43.0212C51.7521 39.8475 48.3306 38.2314 45.22 38.786C44.6828 38.7859 43.0436 39.5758 43.107 39.5435C43.086 39.5557 43.0641 39.5641 43.0435 39.576C41.2504 40.6112 40.0439 42.4463 39.6741 44.5809C37.7992 43.8922 35.7883 43.9463 34.0805 44.7716C34.0805 44.7716 32.9302 45.4109 32.2765 46.0643C29.8959 48.4442 29.4244 52.4809 31.3682 55.8478C31.4765 56.0352 31.5926 56.2198 31.7158 56.4012C31.5816 56.4857 31.4499 56.5744 31.3236 56.6671C31.0598 56.8596 30.8208 57.0729 30.593 57.2956C29.5891 58.2769 29.1893 59.2816 29.1893 59.2816C28.0114 61.7978 28.2848 65.0365 30.1629 67.6501L43.599 90.9222C49.5 94.5 81.6533 91.8508 83 80L64.4106 47.8771C63.1091 45.0001 60.5155 43.156 57.8044 42.8621Z" fill="#3E5B9D"/>
<path d="M56.9542 59.2056C56.2559 59.2849 54.8385 58.6023 53.5075 57.5448C52.5963 56.8212 49.8511 54.6407 46.6848 56.1952C46.5881 56.2287 46.4911 56.2816 46.4114 56.3346C46.3218 56.3793 46.2304 56.4352 46.154 56.5017C43.2225 58.4664 43.7377 61.9351 43.909 63.0865C44.1593 64.768 44.0417 66.3367 43.6239 66.9018C41.7473 69.439 41.7675 72.946 43.6732 75.4296C45.4241 77.7124 48.2415 78.4499 51.026 77.3549C52.2216 76.8858 53.3142 76.0529 54.1021 75.0134C54.3556 74.6795 54.5645 74.3434 54.7657 74.0182C55.1087 73.465 55.4066 72.9838 55.8365 72.6616C56.3302 72.4499 56.8966 72.4327 57.5468 72.4125C57.9287 72.4005 58.324 72.3884 58.7399 72.3357C59.6884 72.2159 60.6248 71.901 61.4482 71.4256C61.7485 71.2522 62.0376 71.056 62.3055 70.842C64.6461 68.9781 65.4161 66.1694 64.3145 63.5117C63.1168 60.62 60.0898 58.8489 56.9542 59.2056Z" fill="#DFC4BD"/>
<path d="M40.1048 67.7707C40.8777 67.1172 41.348 66.1539 41.4293 65.0589C41.5401 63.5635 40.9465 61.9578 39.8008 60.6536C37.9464 58.5428 35.1962 57.822 33.26 58.9398C33.073 59.0478 32.8943 59.1733 32.7297 59.3123C31.9568 59.9658 31.4865 60.9291 31.4053 62.0241C31.2944 63.5195 31.8875 65.1255 33.0335 66.4301C34.8876 68.5405 37.6387 69.2615 39.5743 68.1439C39.7618 68.0357 39.9405 67.9102 40.1048 67.7707Z" fill="#DFC4BD"/>
<path d="M41.1411 57.5024C41.2238 57.4546 41.3055 57.403 41.3854 57.348C43.4386 55.926 43.5932 52.712 41.736 50.0308C39.8921 47.3682 36.8285 46.3565 34.7631 47.7861C33.7407 48.4944 33.1437 49.7253 33.1258 51.1631C33.1095 52.4821 33.5663 53.8818 34.4121 55.1028C36.1848 57.6618 39.0772 58.6939 41.1411 57.5024Z" fill="#DFC4BD"/>
<path d="M55.9052 45.9323C55.7025 46.0053 55.5045 46.0973 55.3175 46.2053C53.3818 47.3228 52.6307 50.0658 53.5313 52.7267C54.0879 54.371 55.1819 55.6884 56.5324 56.34C57.5221 56.8174 58.5907 56.8916 59.5431 56.5489C59.7458 56.4759 59.9434 56.3842 60.1308 56.2759C62.066 55.1586 62.8176 52.4154 61.917 49.7545C61.3604 48.1102 60.2659 46.7931 58.9157 46.1419C57.927 45.664 56.8576 45.5896 55.9052 45.9323Z" fill="#DFC4BD"/>
<path d="M50.1306 52.3127C52.1939 51.1214 52.7468 48.1002 51.4164 45.2857C50.7817 43.9422 49.7982 42.8473 48.6477 42.2019C47.3936 41.4984 46.0288 41.3995 44.9045 41.9313C42.6382 43.0007 41.9781 46.1642 43.362 49.0924C44.7556 52.0406 47.6161 53.5144 49.8747 52.447C49.9622 52.4054 50.0478 52.3604 50.1306 52.3127Z" fill="#DFC4BD"/>
</g>
</svg>
