<svg width="22" height="16" viewBox="0 0 22 16" fill="none" xmlns="http://www.w3.org/2000/svg">
    <path fill-rule="evenodd" clip-rule="evenodd" d="M4.10045 0.866452C2.33007 0.934716 0.904314 2.32958 0.817149 4.09913C0.754236 5.37635 0.699219 6.82825 0.699219 8C0.699219 9.17175 0.754236 10.6237 0.81715 11.9009C0.904314 13.6704 2.33007 15.0653 4.10044 15.1336C6.17666 15.2136 8.90267 15.3 10.9992 15.3C13.0958 15.3 15.8218 15.2136 17.898 15.1336C19.6684 15.0653 21.0941 13.6704 21.1813 11.9009C21.2442 10.6237 21.2992 9.17175 21.2992 8C21.2992 6.82825 21.2442 5.37635 21.1813 4.09913C21.0941 2.32958 19.6684 0.934716 17.898 0.866452C15.8218 0.786395 13.0958 0.700012 10.9992 0.700012C8.90267 0.700012 6.17666 0.786395 4.10045 0.866452ZM14.499 8L8.49902 4.5V11.5L14.499 8Z" fill="#F8251C"/>
</svg>
